<svg width="256" height="150" viewBox="0 0 256 150" fill="none" xmlns="http://www.w3.org/2000/svg">
<path d="M110 89L111.347 93.1459H115.706L112.18 95.7082L113.527 99.8541L110 97.2918L106.473 99.8541L107.82 95.7082L104.294 93.1459H108.653L110 89Z" fill="#E3E2BB"/>
<path d="M250 33L251.347 37.1459H255.706L252.18 39.7082L253.527 43.8541L250 41.2918L246.473 43.8541L247.82 39.7082L244.294 37.1459H248.653L250 33Z" fill="#E3E2BB"/>
<path d="M171 138L172.347 142.146H176.706L173.18 144.708L174.527 148.854L171 146.292L167.473 148.854L168.82 144.708L165.294 142.146H169.653L171 138Z" fill="#E3E2BB"/>
<path d="M153 50L153.898 52.7639H156.804L154.453 54.4721L155.351 57.2361L153 55.5279L150.649 57.2361L151.547 54.4721L149.196 52.7639H152.102L153 50Z" fill="#E3E2BB"/>
<path d="M35 58L35.8981 60.7639H38.8042L36.4531 62.4721L37.3511 65.2361L35 63.5279L32.6489 65.2361L33.5469 62.4721L31.1958 60.7639H34.1019L35 58Z" fill="#E3E2BB"/>
<path d="M173 62L174.796 67.5279H180.608L175.906 70.9443L177.702 76.4721L173 73.0557L168.298 76.4721L170.094 70.9443L165.392 67.5279H171.204L173 62Z" fill="#E3E2BB"/>
<path d="M43.5 38.5C43.5 38.5 36.5 48 25 47C11.1929 47 0 36.4787 0 23.5C0 10.5213 6.19288 0 20 0C5 16.5 20 42.5 43.5 38.5Z" fill="#E3E2BB"/>
</svg>
